<?xml version="1.0" encoding="UTF-8" standalone="no"?>
<!-- Created with Inkscape (http://www.inkscape.org/) -->

<svg
   xmlns:dc="http://purl.org/dc/elements/1.1/"
   xmlns:cc="http://creativecommons.org/ns#"
   xmlns:rdf="http://www.w3.org/1999/02/22-rdf-syntax-ns#"
   xmlns:svg="http://www.w3.org/2000/svg"
   xmlns="http://www.w3.org/2000/svg"
   xmlns:sodipodi="http://sodipodi.sourceforge.net/DTD/sodipodi-0.dtd"
   xmlns:inkscape="http://www.inkscape.org/namespaces/inkscape"
   width="378.431"
   height="128"
   viewBox="0 0 100.12654 33.866668"
   version="1.1"
   id="svg8"
   inkscape:export-filename="\\ldt04\folderredir$\mstruble\Downloads\lynxii.png"
   inkscape:export-xdpi="93.889999"
   inkscape:export-ydpi="93.889999"
   inkscape:version="0.92.3 (2405546, 2018-03-11)"
   sodipodi:docname="lynxii.svg">
  <defs
     id="defs2" />
  <sodipodi:namedview
     id="base"
     pagecolor="#ffffff"
     bordercolor="#666666"
     borderopacity="1.0"
     inkscape:pageopacity="0.0"
     inkscape:pageshadow="2"
     inkscape:zoom="1.979899"
     inkscape:cx="250.17052"
     inkscape:cy="107.0508"
     inkscape:document-units="mm"
     inkscape:current-layer="layer1"
     showgrid="false"
     units="px"
     inkscape:window-width="1600"
     inkscape:window-height="1138"
     inkscape:window-x="-8"
     inkscape:window-y="-8"
     inkscape:window-maximized="1" />
  <metadata
     id="metadata5">
    <rdf:RDF>
      <cc:Work
         rdf:about="">
        <dc:format>image/svg+xml</dc:format>
        <dc:type
           rdf:resource="http://purl.org/dc/dcmitype/StillImage" />
        <dc:title></dc:title>
      </cc:Work>
    </rdf:RDF>
  </metadata>
  <g
     inkscape:label="Layer 1"
     inkscape:groupmode="layer"
     id="layer1"
     transform="translate(0,-263.1333)">
    <g
       id="g4577"
       transform="matrix(4.2537407,0,0,4.2537407,-205.74539,-934.74684)"
       style="fill:#2d3436;fill-opacity:1">
      <path
         d="m 53.556422,289.06247 h -5.188313 v -7.4104 h 1.483113 v 5.92729 h 3.7052 z"
         style="font-style:normal;font-weight:normal;font-size:medium;line-height:1.25;font-family:sans-serif;text-align:center;letter-spacing:-0.39687499px;word-spacing:0px;text-anchor:middle;fill:#2d3436;fill-opacity:1;stroke:none;stroke-width:0.26458332"
         id="path4536"
         inkscape:connector-curvature="0" />
      <path
         d="m 53.768206,289.55767 v -1.4211 l 0.785482,0.0103 q 0.206706,0 0.397908,-0.0672 0.191203,-0.0672 0.3514,-0.18603 0.165365,-0.11886 0.289388,-0.28422 0.124024,-0.1602 0.201538,-0.3514 -0.232544,0.0982 -0.475423,0.19637 -0.237712,0.0982 -0.480591,0.0982 -0.511596,0 -0.961181,-0.18087 -0.449585,-0.18086 -0.79065,-0.51159 -0.335897,-0.3359 -0.532267,-0.81132 -0.191203,-0.48059 -0.191203,-1.07487 v -3.05925 h 1.405599 v 3.05925 q 0,0.29455 0.08268,0.51676 0.08785,0.21704 0.232544,0.36691 0.144694,0.14469 0.335897,0.21704 0.196371,0.0723 0.418579,0.0723 0.217041,0 0.408244,-0.0982 0.19637,-0.10335 0.341064,-0.26872 0.144694,-0.16536 0.227377,-0.37207 0.08268,-0.21187 0.08268,-0.43408 v -3.05925 h 1.421102 v 4.83692 q -0.0052,0.58394 -0.227376,1.09554 -0.222209,0.51159 -0.609782,0.894 -0.382406,0.38241 -0.894003,0.60461 -0.511596,0.22221 -1.09554,0.22221 z"
         style="font-style:normal;font-weight:normal;font-size:medium;line-height:1.25;font-family:sans-serif;text-align:center;letter-spacing:-0.66145831px;word-spacing:0px;text-anchor:middle;fill:#2d3436;fill-opacity:1;stroke:none;stroke-width:0.26458332"
         id="path4538"
         inkscape:connector-curvature="0" />
      <path
         d="m 58.889429,289.06247 h -1.410766 v -5.53455 h 0.341064 l 0.465088,0.53744 q 0.341064,-0.31006 0.769979,-0.47542 0.434082,-0.17054 0.904337,-0.17054 0.506429,0 0.956014,0.19637 0.449585,0.19121 0.785482,0.53227 0.335897,0.3359 0.5271,0.79065 0.19637,0.44959 0.19637,0.96118 v 3.1626 h -1.410766 v -3.1626 q 0,-0.21704 -0.08268,-0.40824 -0.08268,-0.19637 -0.227376,-0.34107 -0.144694,-0.14469 -0.335897,-0.22737 -0.191203,-0.0827 -0.408244,-0.0827 -0.222208,0 -0.418579,0.0827 -0.19637,0.0827 -0.341064,0.22737 -0.144694,0.1447 -0.227376,0.34107 -0.08268,0.1912 -0.08268,0.40824 z"
         style="font-style:normal;font-weight:normal;font-size:medium;line-height:1.25;font-family:sans-serif;text-align:center;letter-spacing:-0.26458332px;word-spacing:0px;text-anchor:middle;fill:#2d3436;fill-opacity:1;stroke:none;stroke-width:0.26458332"
         id="path4540"
         inkscape:connector-curvature="0" />
      <path
         d="m 68.262501,289.06247 h -1.725993 l -1.100708,-1.69499 -1.111043,1.69499 h -1.725993 l 2.020549,-2.83704 -2.020549,-2.72851 h 1.725993 l 1.111043,1.58646 1.100708,-1.58646 h 1.725993 l -2.025716,2.72851 z"
         style="font-style:normal;font-weight:normal;font-size:medium;line-height:1.25;font-family:sans-serif;text-align:center;letter-spacing:-0.26458332px;word-spacing:0px;text-anchor:middle;fill:#2d3436;fill-opacity:1;stroke:none;stroke-width:0.26458332"
         id="path4542"
         inkscape:connector-curvature="0" />
      <path
         sodipodi:nodetypes="ccccc"
         d="m 69.925448,289.06247 h -1.421102 v -5.53455 h 1.421102 z"
         style="font-style:normal;font-variant:normal;font-weight:normal;font-stretch:normal;font-size:medium;line-height:1.25;font-family:Righteous;-inkscape-font-specification:Righteous;text-align:center;letter-spacing:-0.5291667px;word-spacing:0px;text-anchor:middle;fill:#2d3436;fill-opacity:1;stroke:none;stroke-width:0.26458332"
         id="path4544"
         inkscape:connector-curvature="0" />
      <path
         sodipodi:nodetypes="ccccc"
         d="M 71.897421,289.06247 H 70.47632 v -5.53455 h 1.421101 z"
         style="font-style:normal;font-variant:normal;font-weight:normal;font-stretch:normal;font-size:medium;line-height:1.25;font-family:Righteous;-inkscape-font-specification:Righteous;text-align:center;letter-spacing:-0.5291667px;word-spacing:0px;text-anchor:middle;fill:#2d3436;fill-opacity:1;stroke:none;stroke-width:0.26458332"
         id="path4546"
         inkscape:connector-curvature="0" />
      <path
         sodipodi:nodetypes="ccccc"
         d="m 68.510168,283.0274 v -1.42111 h 3.396394 v 1.42111 z"
         style="font-style:normal;font-variant:normal;font-weight:normal;font-stretch:normal;font-size:medium;line-height:1.25;font-family:Righteous;-inkscape-font-specification:Righteous;text-align:center;letter-spacing:-0.5291667px;word-spacing:0px;text-anchor:middle;fill:#0984e3;fill-opacity:1;stroke:none;stroke-width:0.20726708"
         id="path4544-6"
         inkscape:connector-curvature="0" />
    </g>
  </g>
</svg>
